<?xml version="1.0" standalone="no"?>
<!DOCTYPE svg PUBLIC "-//W3C//DTD SVG 20010904//EN"
 "http://www.w3.org/TR/2001/REC-SVG-20010904/DTD/svg10.dtd">
<svg version="1.0" xmlns="http://www.w3.org/2000/svg"
 width="900.000000pt" height="849.000000pt" viewBox="0 0 900.000000 849.000000"
 preserveAspectRatio="xMidYMid meet">
<metadata>
Created by potrace 1.10, written by Peter Selinger 2001-2011
</metadata>
<g transform="translate(0.000000,849.000000) scale(0.100000,-0.100000)"
fill="#000000" stroke="none">
<path d="M7076 8409 c-2 -8 -13 -45 -24 -84 -11 -38 -25 -83 -31 -100 -5 -16
-26 -82 -46 -145 -47 -147 -58 -166 -92 -173 -15 -3 -53 -13 -83 -23 -30 -9
-77 -21 -105 -26 -66 -12 -152 -37 -193 -54 -18 -8 -45 -14 -60 -14 -15 -1
-38 -7 -52 -15 -14 -8 -44 -14 -67 -15 -23 0 -64 -7 -90 -15 -26 -8 -73 -22
-103 -31 -30 -9 -71 -22 -90 -29 -34 -12 -98 -29 -170 -45 -33 -8 -52 -14
-140 -45 -19 -7 -61 -19 -94 -26 -32 -7 -60 -18 -63 -25 -10 -26 31 -134 66
-171 33 -37 37 -38 94 -36 35 2 67 9 76 17 21 18 88 46 112 46 10 0 33 6 51
14 64 27 284 91 363 106 33 6 69 15 80 19 34 15 126 41 142 41 8 0 29 6 46 14
61 27 224 50 220 31 -1 -5 -11 -35 -23 -65 -11 -30 -18 -62 -15 -71 3 -9 -1
-22 -9 -28 -8 -7 -17 -31 -21 -54 -8 -50 -53 -197 -64 -212 -12 -14 -41 -118
-41 -147 0 -12 -7 -32 -15 -42 -8 -11 -15 -31 -15 -45 0 -14 -6 -43 -14 -66
-8 -22 -22 -68 -32 -103 -11 -39 -25 -67 -37 -73 -10 -6 -28 -20 -39 -31 -11
-11 -35 -26 -53 -34 -19 -7 -36 -18 -40 -24 -3 -5 -13 -10 -21 -10 -9 0 -30
-11 -48 -25 -18 -14 -38 -25 -44 -25 -7 0 -12 -4 -12 -9 0 -8 -104 -91 -114
-91 -3 0 -40 -24 -83 -53 -92 -63 -208 -127 -228 -127 -8 0 -15 5 -15 10 0 6
-8 14 -17 17 -10 4 -34 19 -54 33 -50 36 -228 90 -295 90 -21 0 -57 5 -78 11
-22 6 -87 14 -144 17 -71 5 -107 11 -110 20 -4 14 90 111 158 162 25 18 50 39
55 45 21 23 232 176 270 195 6 3 49 31 97 63 47 31 93 57 101 57 9 0 28 11 44
23 25 21 133 77 223 115 19 8 47 21 62 28 39 21 67 17 77 -9 5 -13 23 -38 41
-55 33 -33 42 -32 89 6 9 7 31 24 49 38 26 21 32 33 32 63 0 44 -37 106 -100
169 -41 41 -45 42 -106 42 -60 0 -102 -11 -184 -48 -19 -8 -50 -21 -67 -29
-18 -7 -48 -19 -65 -27 -52 -23 -301 -145 -323 -159 -77 -47 -253 -165 -265
-177 -3 -3 -43 -34 -90 -69 -167 -127 -300 -279 -300 -344 0 -21 -225 -257
-396 -416 -38 -35 -103 -96 -145 -135 -168 -158 -194 -182 -225 -206 -17 -14
-65 -52 -105 -85 -138 -112 -215 -165 -299 -206 -25 -12 -58 -28 -73 -36 -39
-20 -77 -10 -77 22 0 13 -4 35 -9 48 -12 31 4 161 30 249 20 64 24 69 68 91
25 13 64 35 86 49 51 33 223 193 251 233 11 16 33 44 48 60 16 17 44 50 64 75
20 25 41 50 47 55 15 14 105 132 105 138 0 3 29 50 65 104 36 54 71 115 77
136 6 20 17 42 25 48 7 6 13 22 13 36 0 13 7 38 16 55 23 45 22 149 -2 194
-19 35 -110 104 -137 104 -8 0 -28 7 -43 15 -16 8 -46 15 -67 15 -40 0 -74
-28 -199 -168 -122 -136 -318 -413 -318 -450 0 -5 -7 -15 -15 -22 -8 -7 -15
-21 -15 -31 0 -11 -4 -19 -10 -19 -5 0 -16 -15 -25 -32 -8 -18 -30 -62 -50
-97 -19 -35 -35 -69 -35 -76 0 -7 -18 -50 -39 -96 -22 -46 -42 -97 -46 -114
-13 -57 -38 -95 -63 -95 -21 0 -23 -3 -17 -22 16 -54 16 -70 1 -114 -9 -26
-16 -62 -16 -80 0 -18 -5 -55 -12 -82 -18 -81 3 -160 58 -216 48 -48 129 -103
184 -126 54 -21 174 -25 202 -6 12 9 31 16 41 16 23 0 120 50 197 102 126 84
375 290 443 367 12 14 30 32 39 40 101 92 288 289 288 303 0 10 8 21 18 25 21
8 92 83 92 98 0 16 43 55 61 55 8 0 28 -12 44 -28 17 -15 44 -33 60 -41 41
-19 171 -40 290 -46 102 -6 262 -30 303 -46 12 -5 22 -14 22 -22 0 -7 -38 -41
-85 -76 -47 -35 -100 -76 -118 -91 -18 -15 -68 -58 -112 -95 -44 -38 -125
-113 -180 -168 -92 -91 -99 -101 -98 -135 2 -49 34 -118 78 -169 34 -40 40
-43 89 -43 29 0 56 4 62 9 5 5 34 19 64 32 30 12 104 52 164 88 59 36 122 74
139 84 64 38 174 135 224 197 64 80 74 118 58 227 l-8 51 99 74 c100 74 123
90 159 107 11 5 55 37 99 70 77 60 106 73 106 49 0 -7 -7 -40 -15 -73 -9 -33
-20 -85 -25 -115 -5 -30 -19 -98 -30 -150 -31 -137 -50 -286 -57 -438 -5 -120
-4 -134 13 -153 32 -36 141 -79 200 -79 47 0 85 30 66 52 -5 7 -12 45 -15 83
-3 39 -6 75 -8 80 -5 17 11 187 26 265 29 160 35 197 35 221 1 13 8 42 16 64
15 42 26 89 48 215 7 41 21 100 29 130 9 30 21 75 28 100 6 25 15 59 21 75 6
17 14 48 18 70 9 50 35 141 49 178 6 16 11 40 11 54 0 14 6 37 14 51 22 42
106 306 106 333 0 14 6 33 13 44 13 19 29 61 62 170 9 28 25 73 37 101 20 49
24 53 88 78 37 14 80 26 96 26 16 1 61 12 99 26 39 14 93 29 120 34 28 4 63
13 78 19 16 6 38 11 50 11 12 0 36 7 52 16 36 19 128 43 169 44 16 0 52 6 80
14 141 39 251 58 287 49 10 -3 22 -16 25 -30 7 -28 39 -43 90 -43 26 0 44 8
65 29 35 35 35 44 9 112 -31 78 -77 137 -118 150 -50 17 -184 0 -377 -46 -38
-10 -95 -21 -127 -25 -31 -4 -62 -11 -69 -16 -7 -4 -31 -11 -54 -15 -22 -3
-76 -16 -120 -29 -44 -12 -96 -26 -115 -31 -19 -4 -66 -17 -105 -28 -97 -28
-133 -27 -107 5 4 5 16 36 26 69 9 33 22 74 28 90 20 59 29 108 23 126 -10 30
-68 68 -121 80 -95 21 -114 22 -118 8z m-2790 -1482 c-8 -24 -24 -59 -35 -78
-12 -19 -25 -43 -30 -54 -5 -11 -21 -37 -35 -58 -14 -21 -26 -40 -26 -44 0 -3
-13 -22 -30 -43 -16 -21 -30 -41 -30 -45 0 -6 -88 -125 -100 -135 -4 -3 -26
-30 -49 -60 -87 -110 -121 -142 -121 -110 0 12 86 178 102 198 6 7 23 34 37
60 47 85 65 113 116 181 104 140 208 258 213 243 2 -6 -4 -31 -12 -55z"/>
<path d="M1446 7157 c-35 -38 -59 -95 -81 -192 -7 -33 -21 -85 -30 -115 -9
-30 -20 -75 -26 -99 -5 -25 -13 -59 -19 -75 -5 -17 -16 -62 -25 -101 -9 -38
-22 -92 -30 -120 -26 -95 -44 -180 -50 -239 -3 -33 -9 -64 -14 -70 -5 -6 -11
-42 -15 -81 -4 -38 -11 -74 -15 -80 -5 -5 -11 -46 -13 -90 -3 -45 -15 -106
-27 -139 -17 -49 -19 -65 -10 -91 9 -24 8 -38 -6 -70 -10 -24 -19 -73 -21
-123 -1 -46 -8 -138 -15 -205 -6 -67 -12 -248 -13 -402 -1 -298 1 -313 50
-356 67 -58 318 -93 393 -55 42 22 120 103 127 133 4 13 10 23 14 23 5 0 17
19 28 43 10 23 33 72 51 110 17 37 31 76 31 87 0 10 4 21 10 25 5 3 14 20 19
38 5 18 19 57 31 87 12 30 26 69 30 85 8 29 25 74 47 125 6 14 18 43 26 65 8
22 42 105 75 185 33 80 64 156 67 169 10 32 26 13 36 -41 4 -24 12 -72 19
-107 25 -143 109 -253 215 -282 87 -24 175 -39 229 -39 58 0 135 18 157 36 8
8 20 14 25 14 34 0 184 174 184 213 0 8 7 20 15 27 17 14 75 133 75 155 0 8 9
34 19 57 10 24 24 65 30 93 7 27 17 53 23 56 16 10 78 176 78 209 0 15 7 33
15 40 8 7 15 25 15 41 0 16 4 37 9 47 36 75 43 93 37 107 -8 21 11 105 28 125
7 8 14 35 15 59 0 25 8 52 16 61 8 9 15 31 15 48 0 17 4 33 9 36 5 3 12 32 15
63 4 32 14 77 23 100 8 23 13 53 11 67 -4 20 8 111 28 207 8 36 -29 94 -77
118 -22 12 -45 21 -52 21 -21 -1 -64 -44 -80 -80 -34 -76 -47 -113 -47 -136 0
-13 -5 -24 -11 -24 -7 0 -9 -9 -6 -22 4 -13 0 -29 -9 -39 -8 -9 -17 -46 -21
-83 -3 -37 -10 -69 -14 -72 -5 -3 -9 -14 -9 -25 0 -11 -10 -30 -23 -43 -16
-15 -23 -34 -23 -62 0 -47 -51 -215 -70 -230 -8 -6 -14 -25 -14 -43 0 -17 -4
-39 -9 -49 -14 -29 -33 -85 -41 -125 -4 -21 -13 -44 -19 -50 -6 -6 -11 -18
-11 -26 0 -9 -7 -29 -15 -45 -8 -15 -15 -36 -15 -45 0 -10 -7 -26 -15 -37 -8
-10 -15 -29 -15 -41 0 -12 -6 -34 -14 -50 -28 -56 -46 -104 -46 -121 0 -10 -4
-22 -9 -27 -5 -6 -26 -50 -47 -100 -20 -49 -43 -97 -51 -106 -7 -8 -13 -21
-13 -28 0 -17 -66 -102 -101 -129 -16 -13 -35 -22 -42 -19 -16 6 -60 123 -81
219 -14 63 -17 125 -17 330 0 139 3 294 7 343 6 80 4 92 -12 106 -51 43 -244
61 -293 27 -26 -18 -80 -88 -81 -104 0 -6 -7 -17 -15 -24 -8 -7 -15 -21 -15
-31 0 -10 -6 -22 -14 -26 -17 -9 -56 -104 -56 -134 0 -12 -6 -33 -14 -47 -7
-15 -20 -43 -29 -62 -8 -19 -29 -66 -47 -105 -52 -115 -57 -125 -105 -245 -25
-63 -52 -128 -60 -143 -8 -16 -15 -37 -15 -47 0 -9 -7 -23 -15 -30 -8 -7 -15
-22 -15 -34 0 -12 -5 -27 -11 -33 -6 -6 -14 -26 -19 -44 -5 -19 -18 -59 -30
-89 -12 -30 -24 -64 -27 -75 -3 -11 -11 -33 -18 -50 -7 -16 -21 -50 -30 -75
-9 -25 -23 -58 -31 -73 -8 -16 -14 -32 -14 -37 0 -22 -43 -101 -51 -93 -13 13
-12 427 1 553 6 58 15 146 19 196 4 49 10 95 14 101 4 6 9 44 11 85 3 40 10
85 16 100 8 17 9 32 2 43 -9 18 -4 46 24 111 7 18 10 41 7 52 -2 11 0 23 6 26
7 5 7 13 -1 26 -10 15 -10 22 0 32 6 6 12 28 12 47 0 19 6 42 13 50 22 26 48
128 46 175 -2 27 3 51 12 62 7 9 14 22 14 28 2 45 20 127 35 156 10 20 21 58
25 85 4 28 12 56 18 63 5 7 13 29 18 50 4 20 12 55 17 78 5 23 16 52 25 65 10
13 17 33 17 44 0 11 7 29 15 39 8 11 15 32 15 47 0 15 7 29 15 33 8 3 15 17
15 30 0 19 -11 32 -47 53 -40 23 -61 28 -140 31 l-93 4 -34 -35z"/>
<path d="M8516 4608 c-27 -29 -66 -71 -86 -93 -20 -22 -57 -67 -82 -100 -25
-34 -89 -106 -141 -160 -52 -55 -115 -125 -138 -155 -24 -30 -49 -59 -55 -65
-12 -10 -193 -256 -254 -346 -19 -28 -61 -86 -92 -130 -32 -43 -58 -81 -58
-84 0 -9 -211 -287 -270 -356 -72 -84 -151 -159 -167 -159 -32 0 11 230 67
355 10 22 23 58 30 80 11 41 32 95 56 152 8 17 14 38 14 46 0 8 7 20 15 27 8
7 15 16 15 21 0 5 14 39 31 76 17 38 38 84 46 103 36 81 96 192 124 229 24 30
24 42 -2 75 -26 33 -55 45 -129 56 -54 8 -55 8 -88 -28 -18 -20 -35 -48 -39
-62 -3 -14 -11 -31 -16 -39 -13 -16 -34 -50 -43 -71 -3 -8 -33 -69 -65 -135
-32 -66 -59 -125 -59 -132 0 -6 -8 -26 -17 -45 -9 -18 -22 -45 -30 -60 -7 -14
-13 -35 -13 -46 0 -11 -7 -25 -15 -32 -8 -7 -15 -18 -15 -26 0 -14 -20 -66
-46 -117 -8 -16 -14 -36 -14 -46 0 -9 -7 -26 -15 -37 -8 -10 -15 -29 -15 -40
0 -12 -7 -38 -15 -58 -10 -22 -15 -70 -16 -130 -1 -92 0 -94 35 -144 49 -67
95 -98 198 -133 32 -10 70 -19 85 -19 39 1 122 31 163 60 56 39 178 160 228
225 25 33 50 65 57 70 12 10 182 238 200 267 6 9 37 55 70 103 33 47 65 93 70
102 6 10 63 88 128 175 64 86 117 161 117 165 1 4 11 21 24 37 28 34 44 19 23
-21 -8 -16 -21 -44 -30 -63 -8 -19 -29 -65 -46 -103 -17 -37 -31 -70 -31 -73
0 -11 -202 -425 -283 -579 -14 -27 -37 -75 -50 -106 -13 -30 -38 -75 -56 -99
-17 -24 -31 -51 -31 -60 0 -10 -7 -23 -15 -30 -8 -7 -15 -18 -15 -24 0 -6 -14
-31 -30 -56 -16 -25 -30 -51 -30 -59 0 -7 -12 -30 -27 -50 -16 -20 -37 -52
-47 -71 -11 -19 -31 -51 -46 -70 -15 -19 -44 -66 -66 -104 -21 -37 -44 -77
-51 -88 -6 -12 -15 -23 -20 -27 -5 -3 -26 -31 -46 -61 -20 -30 -52 -71 -71
-91 -19 -20 -54 -58 -77 -85 -23 -26 -64 -66 -93 -88 -28 -23 -52 -44 -54 -48
-7 -16 -34 -8 -28 7 3 8 8 43 12 78 5 52 3 65 -12 84 -32 36 -60 38 -90 6 -14
-15 -30 -37 -35 -48 -5 -11 -18 -33 -28 -50 -90 -140 -83 -179 40 -242 68 -35
203 -45 241 -19 12 9 30 16 39 16 51 0 339 272 339 321 0 9 16 32 35 52 19 20
35 42 35 50 0 7 13 26 29 41 16 16 35 42 42 60 7 17 28 45 45 61 18 17 37 49
43 73 7 25 22 49 37 58 13 9 27 28 30 43 4 14 18 46 33 71 14 25 37 67 50 93
12 26 34 55 47 63 13 9 24 24 24 33 0 9 9 30 20 46 11 17 20 38 20 48 0 10 12
30 26 44 31 31 64 83 64 101 0 7 11 28 25 46 14 18 25 44 25 58 0 14 7 31 15
38 8 7 15 20 15 30 0 9 9 25 19 34 11 10 17 25 14 37 -3 10 1 26 8 35 15 18
35 52 45 74 3 8 25 56 49 105 64 132 135 293 135 307 0 6 12 36 26 67 50 109
62 137 84 196 13 33 31 83 42 110 18 48 72 207 104 310 23 74 16 124 -21 147
-49 29 -68 36 -126 43 l-55 7 -48 -54z"/>
<path d="M3447 4453 c-4 -3 -7 -22 -7 -40 0 -19 -5 -44 -12 -56 -6 -12 -15
-42 -19 -67 -7 -41 -22 -98 -47 -175 -6 -16 -18 -57 -27 -90 -9 -33 -23 -75
-31 -93 -8 -18 -14 -42 -14 -53 0 -11 -5 -30 -12 -42 -6 -12 -15 -38 -19 -57
-4 -19 -13 -51 -19 -70 -7 -19 -18 -51 -25 -70 -7 -19 -18 -51 -25 -70 -7 -19
-15 -48 -18 -65 -2 -16 -11 -39 -18 -50 -8 -11 -14 -30 -14 -42 0 -12 -6 -37
-14 -55 -21 -52 -37 -100 -46 -138 -4 -19 -17 -64 -29 -100 -12 -36 -26 -83
-31 -105 -17 -78 -36 -117 -74 -158 -83 -91 -163 -183 -180 -210 -9 -15 -20
-50 -23 -76 -5 -41 -1 -59 25 -114 17 -35 45 -80 62 -98 24 -26 29 -40 25 -59
-16 -64 -46 -383 -39 -423 16 -102 28 -139 53 -156 33 -23 95 -33 127 -21 23
9 24 14 24 92 0 45 6 100 14 123 13 38 28 126 45 257 9 79 29 98 100 98 31 0
110 12 176 26 66 14 143 29 170 34 28 4 66 13 85 19 19 6 49 11 67 11 42 0
152 28 180 46 12 8 33 14 46 14 13 0 32 7 43 15 10 8 28 15 40 15 11 0 29 7
40 15 10 8 29 15 40 15 12 0 27 7 34 15 7 8 21 15 30 15 10 0 45 22 78 50 32
27 62 47 66 43 3 -3 6 -22 6 -42 0 -100 73 -193 206 -261 63 -32 76 -35 154
-35 84 0 109 6 210 53 56 26 190 116 255 171 33 28 92 75 130 105 55 43 252
226 355 331 74 75 110 115 110 123 0 5 11 17 25 26 14 9 25 23 25 31 0 14 54
55 72 55 4 0 3 -12 -2 -27 -4 -16 -14 -85 -21 -155 -13 -143 -7 -172 44 -219
42 -38 125 -78 179 -85 38 -5 52 -3 78 16 31 22 100 146 100 180 0 10 7 23 15
30 8 7 15 19 15 28 0 8 6 23 13 31 7 9 21 36 31 61 10 25 38 86 62 135 24 50
44 95 44 101 0 7 6 17 13 23 8 6 20 29 27 51 7 22 21 47 32 56 10 10 18 24 18
32 0 8 14 31 30 52 17 21 30 41 30 44 0 4 27 38 60 77 33 38 60 73 60 78 0 5
31 42 69 83 l70 73 18 -40 c13 -29 19 -77 23 -174 4 -105 8 -136 20 -143 22
-14 93 7 105 31 55 107 57 114 52 199 -3 46 -10 89 -16 95 -6 6 -11 19 -11 28
0 22 -69 90 -112 111 -52 25 -141 48 -186 48 -94 0 -187 -87 -345 -326 -26
-38 -47 -75 -47 -82 0 -7 -4 -12 -10 -12 -5 0 -12 -11 -16 -25 -3 -14 -11 -29
-18 -33 -6 -4 -39 -64 -74 -134 -35 -71 -67 -128 -72 -128 -18 0 -20 20 -7 57
18 49 38 126 47 183 9 57 28 137 70 290 7 25 15 72 17 105 4 57 3 61 -24 81
-16 12 -55 27 -87 34 -66 14 -81 7 -91 -43 -4 -18 -16 -61 -27 -96 -23 -73
-52 -178 -72 -263 -13 -55 -19 -63 -200 -245 -102 -103 -196 -197 -208 -208
-39 -35 -139 -129 -182 -170 -86 -83 -253 -234 -306 -276 -75 -59 -101 -81
-119 -101 -8 -10 -19 -18 -24 -18 -5 0 -34 -19 -65 -43 -143 -108 -274 -167
-299 -135 -35 46 -40 132 -13 233 39 150 39 152 84 171 22 10 65 36 95 58 65
47 220 189 241 221 8 12 38 49 67 81 114 130 243 299 243 319 0 3 20 34 45 69
25 36 45 69 45 75 0 5 12 32 26 60 32 65 55 142 61 208 4 42 0 60 -17 87 -37
61 -104 103 -215 136 -60 17 -91 -1 -195 -116 -108 -117 -293 -360 -323 -424
-4 -8 -18 -35 -32 -59 -14 -24 -25 -49 -25 -56 0 -7 -8 -19 -18 -28 -15 -14
-83 -142 -117 -222 -7 -16 -26 -60 -44 -96 -17 -36 -31 -73 -31 -82 0 -34 -43
-117 -61 -117 -26 0 -33 -19 -15 -39 20 -22 20 -35 2 -64 -8 -12 -17 -51 -21
-87 -3 -36 -10 -72 -15 -79 -12 -20 -38 -6 -42 21 -3 21 -8 23 -63 24 -33 1
-71 -3 -85 -8 -25 -10 -58 -17 -195 -41 -38 -7 -80 -18 -92 -25 -12 -7 -38
-12 -58 -12 -20 0 -46 -5 -57 -11 -26 -14 -191 -49 -229 -49 -15 0 -38 -4 -51
-10 -25 -11 -165 -39 -235 -47 -34 -4 -43 -2 -43 10 0 9 4 18 9 21 5 3 12 32
16 63 4 32 13 78 20 103 8 25 16 58 20 73 7 34 136 164 230 233 36 26 65 51
65 56 0 4 7 8 15 8 9 0 26 10 39 23 12 12 39 33 59 47 20 14 37 28 37 33 0 4
10 12 23 17 24 11 31 15 125 78 35 23 68 42 74 42 10 0 69 31 78 41 9 11 125
68 188 93 100 38 124 51 132 67 15 27 -23 100 -75 148 -52 48 -70 49 -158 5
-27 -13 -57 -24 -67 -24 -10 0 -22 -5 -25 -11 -4 -5 -17 -15 -28 -20 -12 -5
-35 -18 -52 -29 -16 -11 -41 -25 -55 -31 -14 -5 -38 -21 -55 -33 -16 -12 -37
-26 -45 -29 -8 -4 -28 -16 -45 -27 -16 -11 -39 -24 -50 -29 -12 -5 -27 -16
-34 -25 -7 -8 -32 -27 -56 -41 -24 -14 -59 -39 -77 -55 -18 -17 -38 -30 -46
-30 -7 0 -15 -7 -18 -15 -9 -22 -34 -18 -34 4 0 11 6 32 14 48 14 28 71 204
82 256 3 15 10 30 15 33 5 3 9 16 9 28 0 13 7 37 15 52 8 16 15 40 15 52 0 13
6 36 14 50 8 15 22 56 31 92 27 98 44 160 60 210 13 42 28 125 42 228 5 41 4
45 -42 88 -26 24 -55 44 -64 44 -9 0 -25 7 -35 15 -21 16 -48 20 -59 8z m1745
-585 c-7 -7 -12 -20 -12 -29 0 -19 -32 -90 -60 -134 -11 -16 -24 -39 -30 -50
-6 -11 -19 -33 -30 -50 -11 -16 -25 -40 -31 -52 -7 -13 -16 -23 -21 -23 -4 0
-8 -5 -8 -11 0 -32 -274 -358 -288 -344 -5 5 16 50 58 123 6 9 15 28 21 42 6
14 21 39 35 57 13 17 24 36 24 41 0 14 77 132 130 202 128 167 172 220 188
229 24 14 39 14 24 -1z"/>
<path d="M1084 3837 c-16 -7 -39 -21 -51 -32 -22 -21 -82 -113 -113 -170 -6
-11 -19 -33 -30 -50 -11 -16 -24 -40 -29 -52 -6 -12 -21 -39 -34 -60 -22 -36
-74 -127 -103 -183 -7 -14 -22 -47 -34 -75 -12 -27 -26 -59 -32 -70 -7 -11
-17 -31 -23 -45 -7 -14 -24 -48 -39 -76 -14 -29 -26 -61 -26 -71 0 -11 -7 -28
-15 -39 -8 -10 -15 -28 -15 -40 0 -11 -8 -29 -19 -38 -11 -10 -21 -37 -25 -66
-4 -27 -11 -52 -16 -55 -6 -3 -10 -14 -10 -25 0 -10 -14 -45 -30 -78 -17 -34
-30 -71 -30 -83 0 -12 -6 -30 -13 -38 -8 -9 -24 -50 -36 -91 -12 -41 -29 -87
-37 -102 -16 -30 -36 -110 -36 -148 0 -13 -9 -37 -20 -53 -13 -18 -22 -48 -23
-80 -2 -29 -10 -78 -19 -109 -8 -31 -16 -96 -17 -145 -5 -206 36 -272 213
-347 115 -49 116 -49 206 -44 78 5 99 10 174 46 87 43 214 136 308 228 83 80
140 142 140 151 0 4 19 28 43 52 23 24 49 54 57 67 8 12 50 67 93 122 42 56
77 106 77 112 0 5 14 29 30 52 17 22 30 49 30 58 0 9 13 35 30 58 16 23 38 66
48 96 10 30 24 61 30 68 16 20 19 135 4 150 -7 7 -12 20 -12 30 0 32 -28 19
-66 -29 -21 -27 -45 -55 -54 -63 -19 -18 -58 -68 -189 -241 -35 -46 -69 -88
-77 -92 -8 -4 -14 -12 -14 -17 0 -15 -80 -130 -91 -130 -5 0 -18 -19 -28 -42
-11 -25 -57 -82 -107 -134 -49 -50 -114 -117 -144 -150 -53 -56 -228 -203
-260 -218 -24 -11 -57 -31 -73 -45 -9 -7 -28 -11 -42 -9 -44 5 -59 59 -61 213
-1 86 3 139 11 155 7 14 15 49 18 79 4 30 11 59 17 65 5 5 10 25 10 44 0 18 5
43 12 55 6 12 15 35 19 52 8 35 26 87 44 130 7 17 22 59 33 95 12 36 34 101
51 145 16 44 41 112 55 150 15 39 33 84 40 100 8 17 35 73 59 125 71 151 116
242 142 285 13 22 24 47 25 56 0 9 7 22 15 29 8 7 15 19 15 27 0 8 13 32 28
52 16 20 39 59 52 86 13 28 41 70 62 94 21 24 38 48 38 52 0 18 26 8 35 -13
12 -25 58 -53 133 -79 61 -21 99 -13 106 23 24 114 11 183 -45 239 -49 49 -90
69 -179 85 -90 16 -144 17 -186 1z"/>
<path d="M2804 3700 c-22 -7 -49 -33 -90 -87 -32 -43 -63 -83 -68 -90 -6 -6
-35 -46 -64 -87 -30 -42 -57 -76 -60 -77 -4 0 -52 -2 -107 -3 -156 -4 -175
-12 -281 -120 -50 -51 -97 -104 -105 -119 -8 -14 -30 -50 -50 -79 -20 -29 -44
-69 -54 -88 -10 -19 -22 -42 -26 -50 -5 -8 -12 -22 -15 -30 -3 -8 -12 -28 -20
-43 -7 -16 -14 -35 -14 -42 0 -8 -6 -29 -14 -47 -27 -62 -48 -149 -42 -172 8
-32 55 -75 102 -94 22 -8 78 -17 126 -19 78 -4 90 -2 125 20 53 33 121 103
179 182 26 36 51 62 55 58 7 -7 -8 -59 -34 -123 -3 -8 -17 -60 -31 -115 -14
-55 -35 -136 -47 -180 -12 -44 -25 -102 -29 -130 -5 -27 -13 -78 -18 -113 -9
-55 -8 -68 9 -107 25 -56 68 -88 141 -105 53 -12 60 -12 78 5 16 15 18 21 7
33 -8 11 -11 49 -9 126 2 107 14 177 49 296 9 30 22 75 29 100 7 25 20 72 30
105 28 98 95 293 135 395 12 30 23 67 26 82 3 15 11 33 19 39 8 6 14 17 14 24
0 8 6 26 14 42 8 15 23 48 34 73 11 25 32 72 47 105 26 59 35 78 70 160 10 22
22 47 26 55 50 93 78 163 70 177 -18 33 -149 60 -207 43z m-384 -501 c0 -6
-13 -30 -28 -53 -15 -22 -31 -48 -35 -56 -16 -31 -76 -123 -156 -235 -28 -38
-67 -94 -87 -122 -21 -29 -41 -53 -46 -53 -13 0 -9 35 6 67 8 15 35 71 61 123
54 108 112 188 203 278 62 61 82 73 82 51z"/>
<path d="M4250 1528 c-276 -19 -557 -78 -660 -139 -8 -5 -24 -13 -35 -18 -35
-15 -84 -73 -90 -105 -3 -17 -5 -219 -3 -450 l3 -418 42 -37 c97 -83 246 -130
563 -177 153 -23 707 -27 733 -5 14 11 17 33 17 122 l0 109 371 0 c236 0 377
4 390 10 18 10 19 26 19 439 l0 429 -39 39 c-39 39 -130 90 -186 104 -16 4
-43 12 -60 17 -42 14 -124 34 -160 39 -16 2 -73 10 -125 18 -215 32 -515 41
-780 23z m575 -88 c150 -13 304 -35 390 -57 106 -26 195 -55 201 -64 3 -5 14
-9 25 -9 10 0 19 -7 19 -15 0 -13 -59 -15 -473 -15 -355 0 -476 -3 -485 -12
-25 -25 -10 -53 73 -139 47 -47 85 -92 85 -98 0 -24 -434 -7 -645 25 -141 22
-349 77 -361 95 -3 5 -13 9 -22 9 -23 0 -82 54 -82 75 0 41 123 109 240 134
19 5 53 13 75 19 190 51 655 76 960 52z m690 -400 l0 -145 -345 0 -345 0 -3
55 c-3 54 -4 56 -88 141 -46 47 -81 88 -78 92 4 4 199 6 433 5 l426 -3 0 -145z
m-1898 29 c101 -43 231 -75 418 -103 129 -19 475 -39 596 -35 l94 4 3 -139 c1
-80 -2 -144 -7 -149 -38 -38 -615 -7 -831 45 -25 6 -63 14 -85 18 -84 16 -208
71 -241 107 -23 24 -24 33 -24 149 0 140 -2 137 77 103z m1901 -410 c2 -107 0
-139 -11 -148 -11 -8 -106 -11 -348 -9 l-334 3 -3 148 -3 147 348 -2 348 -3 3
-136z m-1920 32 c66 -34 146 -59 272 -85 185 -38 283 -47 565 -54 l290 -7 0
-145 0 -145 -85 -8 c-104 -9 -468 8 -605 29 -259 40 -450 105 -481 166 -10 19
-14 62 -14 143 0 109 1 115 20 115 11 0 28 -4 38 -9z"/>
</g>
</svg>
